<svg width="50" height="50" viewBox="0 0 50 50" fill="none" xmlns="http://www.w3.org/2000/svg">
<path d="M8.82195 35.4668L10.3314 36.3383L27.1471 7.21342L25.6377 6.34192L8.82195 35.4668Z" fill="#E535AB"/>
<path d="M42.1078 33.14H8.47629V34.883H42.1078V33.14Z" fill="#E535AB"/>
<path d="M9.14179 34.1192L25.9638 43.8317L26.8353 42.3223L10.0133 32.6098L9.14179 34.1192Z" fill="#E535AB"/>
<path d="M23.7551 8.8059L40.5772 18.5184L41.4487 17.009L24.6266 7.29646L23.7551 8.8059Z" fill="#E535AB"/>
<path d="M9.14647 17.0023L10.018 18.5118L26.84 8.79926L25.9685 7.28983L9.14647 17.0023Z" fill="#E535AB"/>
<path d="M23.4512 7.21374L40.267 36.3386L41.7764 35.4671L24.9607 6.34224L23.4512 7.21374Z" fill="#E535AB"/>
<path d="M11.5528 15.8465H9.80981V35.2715H11.5528V15.8465Z" fill="#E535AB"/>
<path d="M40.7848 15.8465H39.0418V35.2715H40.7848V15.8465Z" fill="#E535AB"/>
<path d="M24.9059 41.7754L25.6671 43.0939L40.2978 34.6467L39.5365 33.3282L24.9059 41.7754Z" fill="#E535AB"/>
<path d="M43.0948 35.8385C42.0868 37.592 39.8398 38.1905 38.0863 37.1825C36.3328 36.1745 35.7343 33.9275 36.7423 32.174C37.7503 30.4205 39.9973 29.822 41.7508 30.83C43.5148 31.8485 44.1133 34.085 43.0948 35.8385Z" fill="#E535AB"/>
<path d="M13.8418 18.944C12.8338 20.6975 10.5868 21.296 8.83331 20.288C7.07981 19.28 6.48131 17.033 7.48931 15.2795C8.49731 13.526 10.7443 12.9275 12.4978 13.9355C14.2513 14.954 14.8498 17.1905 13.8418 18.944Z" fill="#E535AB"/>
<path d="M7.49981 35.8385C6.49181 34.085 7.0903 31.8485 8.8438 30.83C10.5973 29.822 12.8338 30.4205 13.8523 32.174C14.8603 33.9275 14.2618 36.164 12.5083 37.1825C10.7443 38.1905 8.50781 37.592 7.49981 35.8385Z" fill="#E535AB"/>
<path d="M36.7528 18.944C35.7448 17.1905 36.3433 14.954 38.0968 13.9355C39.8503 12.9275 42.0868 13.526 43.1053 15.2795C44.1133 17.033 43.5148 19.2695 41.7613 20.288C40.0078 21.296 37.7608 20.6975 36.7528 18.944Z" fill="#E535AB"/>
<path d="M25.2973 46.118C23.2708 46.118 21.6328 44.48 21.6328 42.4535C21.6328 40.427 23.2708 38.789 25.2973 38.789C27.3238 38.789 28.9618 40.427 28.9618 42.4535C28.9618 44.4695 27.3238 46.118 25.2973 46.118Z" fill="#E535AB"/>
<path d="M25.2973 12.329C23.2708 12.329 21.6328 10.691 21.6328 8.6645C21.6328 6.638 23.2708 5 25.2973 5C27.3238 5 28.9618 6.638 28.9618 8.6645C28.9618 10.691 27.3238 12.329 25.2973 12.329Z" fill="#E535AB"/>
</svg>
